<svg width="600" height="600" viewBox="0 0 600 600" fill="none" xmlns="http://www.w3.org/2000/svg">
<rect width="600" height="600" rx="275" fill="#3D2F29"/>
<path d="M279.739 84.375H320.81L358.723 89.114L391.896 98.592L410.852 108.07L429.808 122.287L439.286 134.924V138.084H442.445L448.764 157.04V196.532L445.604 209.169L439.286 223.386L428.228 240.762L417.17 251.82L398.214 266.037L379.258 275.515L363.462 281.834L349.245 284.993V288.152L383.997 292.891L402.953 299.21L421.909 308.688L439.286 321.326L451.923 337.122L459.821 352.919L462.981 360.817L464.56 375.034V409.787L462.981 424.004L453.503 449.279L440.865 466.655L426.648 480.872L404.533 495.089L376.099 506.147L353.984 510.886L325.549 515.625H132.83L131.25 507.727L132.83 504.567L177.06 502.988L178.64 269.196L184.959 267.617L196.016 270.776L221.291 275.515H293.956L319.231 267.617L335.027 259.718L349.245 248.661L360.302 234.444L369.78 215.488L374.519 194.952V161.779L368.201 141.243L363.462 131.765L353.984 120.707L350.824 119.128V115.968L341.346 112.809L328.709 106.49L306.593 101.751H265.522L240.247 108.07L221.291 115.968L207.074 125.446L196.016 138.084L189.698 153.88L191.277 160.199L197.596 158.62L200.755 150.721L213.393 139.663L229.19 136.504L240.247 138.084L252.885 144.402L260.783 153.88L263.942 161.779V187.054L257.624 199.691L249.725 207.589L243.407 212.328L227.61 217.067L205.495 215.488L188.118 204.43L181.799 196.532L177.06 188.633L173.901 179.155V150.721L180.22 136.504L191.277 120.707L202.335 109.65L221.291 98.592L248.146 89.114L279.739 84.375Z" fill="#F6E7D7"/>
<path d="M231.053 294.473H251.589L286.341 297.632L314.775 303.951L325.833 308.69L335.311 313.429L351.108 326.066L362.166 343.442L366.905 354.5L371.644 379.775V412.948L366.905 439.802L360.586 455.599L349.528 471.396L336.891 484.033L322.674 491.931L302.138 499.83L267.385 504.569H229.473L227.894 502.989V297.632L231.053 294.473Z" fill="#3D2F29"/>
</svg>
