<svg width="1410" height="2896" viewBox="0 0 1410 2896" fill="none" xmlns="http://www.w3.org/2000/svg">
<path d="M413.636 1425.74L534.407 1387.55L665.243 1378H786.014L906.786 1397.09L957.107 1411.41L1007.43 1425.74L1168.46 1511.66L1238.91 1578.49L1319.42 1683.51L1369.74 1798.08L1399.94 1912.64L1410 2036.75V2170.42L1379.81 2351.81L1309.36 2533.21L1228.84 2638.23L1178.52 2695.51H1158.39L1138.26 2733.7L1037.62 2800.53L906.786 2857.81L786.014 2886.45L685.371 2896H494.15L302.929 2857.81L162.029 2790.98L91.5786 2733.7L51.3214 2685.96L21.1286 2628.68L1 2552.3V2428.19L21.1286 2342.26L71.45 2294.53L141.9 2246.79L222.414 2227.7L312.993 2237.24L373.379 2256.34L443.829 2332.72L463.957 2370.91V2485.47L413.636 2571.4L333.121 2609.58H232.479L162.029 2571.4L131.836 2514.11V2495.02H91.5786V2561.85L141.9 2657.32L212.35 2724.15L292.864 2762.34L363.314 2790.98L433.764 2800.53H645.114L755.821 2762.34L846.4 2705.06L926.914 2600.04L977.236 2495.02L1017.49 2332.72L1027.56 2218.15V2008.11L1007.43 1826.72L967.171 1693.06L906.786 1588.04L846.4 1521.21L796.079 1492.57L695.436 1463.92H594.793L463.957 1492.57L413.636 1425.74Z" fill="#3D2F29"/>
<path d="M413.636 1425.74L534.407 1387.55L665.243 1378H786.014L906.786 1397.09L957.107 1411.41L1007.43 1425.74L1168.46 1511.66L1238.91 1578.49L1319.42 1683.51L1369.74 1798.08L1399.94 1912.64L1410 2036.75V2170.42L1379.81 2351.81L1309.36 2533.21L1228.84 2638.23L1178.52 2695.51H1158.39L1138.26 2733.7L1037.62 2800.53L906.786 2857.81L786.014 2886.45L685.371 2896H494.15L302.929 2857.81L162.029 2790.98L91.5786 2733.7L51.3214 2685.96L21.1286 2628.68L1 2552.3V2428.19L21.1286 2342.26L71.45 2294.53L141.9 2246.79L222.414 2227.7L312.993 2237.24L373.379 2256.34L443.829 2332.72L463.957 2370.91V2485.47L413.636 2571.4L333.121 2609.58H232.479L162.029 2571.4L131.836 2514.11V2495.02H91.5786V2561.85L141.9 2657.32L212.35 2724.15L292.864 2762.34L363.314 2790.98L433.764 2800.53H645.114L755.821 2762.34L846.4 2705.06L926.914 2600.04L977.236 2495.02L1017.49 2332.72L1027.56 2218.15V2008.11L1007.43 1826.72L967.171 1693.06L906.786 1588.04L846.4 1521.21L796.079 1492.57L695.436 1463.92H594.793L463.957 1492.57L413.636 1425.74Z" fill="#3D2F29"/>
<path d="M1167.46 1343.3L1237.91 1278.45L1318.42 1176.55L1368.74 1065.38L1398.94 954.208L1409 833.774V704.076L1378.81 528.057L1308.36 352.039L1227.84 250.133L1177.52 194.548H1157.39L1137.26 157.491L1036.62 92.6422L905.786 37.0576L785.014 9.26477L684.371 0.000610352H493.15L301.929 37.0576L161.029 101.906L90.5786 157.491L50.3214 203.812L20.1286 259.397L0 333.51L90.5786 324.246L140.9 231.604L211.35 166.755L291.864 129.699L362.314 101.906L432.764 92.6422H644.114L754.821 129.699L845.4 185.284L925.914 287.19L976.236 389.095L1016.49 546.586L1026.56 657.756V861.567L1006.43 1037.59L966.171 1167.28L905.786 1269.19L845.4 1334.04L1167.46 1343.3Z" fill="#3D2F29"/>
<path d="M1167.46 1343.3L1237.91 1278.45L1318.42 1176.55L1368.74 1065.38L1398.94 954.208L1409 833.774V704.076L1378.81 528.057L1308.36 352.039L1227.84 250.133L1177.52 194.548H1157.39L1137.26 157.491L1036.62 92.6422L905.786 37.0576L785.014 9.26477L684.371 0.000610352H493.15L301.929 37.0576L161.029 101.906L90.5786 157.491L50.3214 203.812L20.1286 259.397L0 333.51L90.5786 324.246L140.9 231.604L211.35 166.755L291.864 129.699L362.314 101.906L432.764 92.6422H644.114L754.821 129.699L845.4 185.284L925.914 287.19L976.236 389.095L1016.49 546.586L1026.56 657.756V861.567L1006.43 1037.59L966.171 1167.28L905.786 1269.19L845.4 1334.04L1167.46 1343.3Z" fill="#3D2F29"/>
<path d="M342.6 1452V2126H193L188.6 1595.5L162.2 1604.19L118.2 1625.94L105 1591.15L157.8 1565.06L193 1538.97L219.4 1504.18L237 1465.05V1452H342.6Z" fill="#3D2F29"/>
<path d="M324.106 490.778L329.508 1404.5H224.008L224 447.77L236.513 432.59H890V490.778H324.106Z" fill="#3D2F29"/>
</svg>
