<svg width="300" height="136" viewBox="0 0 300 136" fill="none" xmlns="http://www.w3.org/2000/svg">
<path d="M205.721 17.6199H211.671L217.163 18.3064L218.536 18.764L220.595 19.2217L223.341 20.3659L225.401 21.51L227.918 23.5695L229.291 25.1714L230.664 27.4597L231.35 29.2903L231.808 32.2652V35.4688L231.122 38.9013L229.749 41.6473L228.604 43.2491L226.774 44.851L223.799 46.6816L221.739 47.597L218.993 48.2834L218.765 48.7411L223.112 49.1988L225.401 50.1141L227.46 51.4871L228.604 52.8601V53.3178H229.062L229.977 55.6061L230.664 57.8944L231.122 61.5557L231.35 72.082L231.579 75.0569L232.266 76.4299H233.639L234.554 75.9722L236.156 73.455L237.3 70.0225L237.758 69.5649L239.359 69.7937V71.3955L237.986 74.828L236.842 76.8875L235.698 78.4894L234.554 79.4047L231.808 80.7777L230.435 81.0065H227.231L225.858 80.5489L224.028 79.4047L223.112 78.4894L221.739 75.7434L221.053 72.5397L220.824 61.0981L220.595 58.5809L219.451 55.1484L218.078 53.0889L216.247 51.4871L213.959 50.3429L211.442 49.8853L209.84 49.6564H202.06V78.2605L209.154 78.4894L209.382 78.7182V79.8624L209.154 80.0912L197.025 80.32L196.797 80.7777L198.17 81.2353L199.771 82.6083L201.144 84.6678L201.831 86.7273V91.9905L201.144 94.5076L199.543 97.0248L197.712 98.8555L196.11 99.9996L192.678 101.601L190.389 102.288L190.16 102.974H192.449L195.881 103.89L198.398 105.263L200.458 106.865L202.06 109.153L203.204 111.441L204.119 115.103V120.595L203.433 124.027L201.602 127.688L200.229 129.519L199.085 130.663L197.254 132.265L194.279 133.867L189.932 135.011L188.33 135.24H182.838L179.177 134.325L175.973 132.723L174.6 131.579L173.456 130.206L172.54 128.375L172.312 127.688V123.112L173.456 121.052L175.286 119.679L176.202 119.222H179.405L181.694 120.595L182.838 122.883L182.609 124.942L181.694 127.002L180.321 127.917L177.575 128.146L175.973 127.46L175.286 126.544L175.058 125.858H174.142L174.371 127.688L175.744 129.977L178.49 132.036L181.694 132.952H186.041L188.33 132.494L190.16 132.036V131.579L191.305 130.892L192.906 129.061L194.279 126.773L194.966 124.714L195.652 121.052V117.62L195.424 115.56L195.195 115.103L194.737 112.357L193.364 109.153L191.076 106.636L188.787 105.492L187.872 105.263H184.897L181.694 106.407L180.778 106.636L180.321 105.492L181.236 104.347L185.126 102.517L188.33 100.228L190.618 98.169L191.533 96.796H191.991L192.449 95.423L193.364 93.5923L193.822 91.304V87.8715L193.364 85.5832L192.22 83.2948L190.618 81.693L187.872 80.32H182.609L179.863 81.2353L177.575 82.8372L176.431 84.439L175.744 86.2697V87.4138L176.659 87.6427L177.346 86.0408L178.49 85.1255L179.405 84.8967H181.236L182.838 85.5832L184.211 87.185L184.44 88.3292V90.1598L183.753 91.7617L182.838 92.9058L180.549 94.05H178.261L176.431 93.1346L175.058 92.2193L173.913 90.1598V85.812L174.829 83.2948L176.888 81.0065L178.948 79.6335L181.694 78.4894L185.126 78.0317H188.787L191.533 78.2605L191.762 77.1164V40.2743L191.991 39.359L193.593 39.5878L194.966 40.2743L196.11 40.5031H199.314L201.602 40.2743L201.831 40.5031V47.597H209.382L212.815 47.3681L215.332 46.6816L215.79 46.224L216.934 45.7663L218.307 44.851L219.909 42.105L220.595 40.0455L220.824 38.4436V31.5787L220.138 27.9173L218.993 25.4002L218.078 24.0272L216.247 22.1965L213.73 20.8235L211.442 20.137H204.119L200.687 20.8235L198.17 21.7389L195.652 23.1119L194.508 24.256L193.135 26.0867L192.678 27.2308V28.6038L193.593 28.375L194.966 26.5443L195.881 25.629L198.17 25.1714L200 25.4002L201.602 26.3155L202.746 27.4597L203.433 29.0615V32.0363L202.746 33.867L201.602 35.24L199.314 36.613H194.966L192.678 35.24L191.533 34.0958L190.847 32.9517L190.16 30.4345V28.1462L190.847 25.8578L191.991 24.0272L193.822 21.9677L197.483 19.6794L199.085 18.9929L200.916 18.5352L205.721 17.6199Z" fill="#3D2F29"/>
<path d="M21.5103 17.6199H27.4599L32.9519 18.3064L37.7574 19.6794L40.5034 21.0524L43.2494 23.1119L44.6224 24.9425V25.4002H45.08L45.9954 28.1462V33.867L45.5377 35.6977L44.6224 37.7571L43.0205 40.2743L41.4187 41.8761L38.6727 43.9356L35.9267 45.3086L33.6384 46.224L31.5789 46.6816V47.1393L36.6132 47.8258L39.3592 48.7411L42.1052 50.1141L44.6224 51.9448L46.453 54.2331L47.5972 56.5214L48.0549 57.6656L48.2837 59.7251V64.7594L48.0549 66.8189L46.6819 70.4802L44.8512 72.9974L42.7917 75.0569L39.5881 77.1164L35.4691 78.7182L32.2654 79.4047L28.1464 80.0912H0.228833L0 78.947L0.228833 78.4894L6.63615 78.2605L6.86498 44.3933L7.78031 44.1645L9.38214 44.6221L13.0435 45.3086H23.5698L27.2311 44.1645L29.5194 43.0203L31.5789 41.4185L33.1807 39.359L34.5537 36.613L35.2402 33.6382V28.8327L34.3249 25.8578L33.6384 24.4849L32.2654 22.883L31.8077 22.6542V22.1965L30.4347 21.7389L28.6041 20.8235L25.4004 20.137H19.4508L15.7895 21.0524L13.0435 22.1965L10.984 23.5695L9.38214 25.4002L8.46681 27.6885L8.69564 28.6038L9.61097 28.375L10.0686 27.2308L11.8993 25.629L14.1876 25.1714L15.7895 25.4002L17.6201 26.3155L18.7643 27.6885L19.2219 28.8327V32.494L18.3066 34.3247L17.1624 35.4688L16.2471 36.1553L13.9588 36.8418L10.7551 36.613L8.23798 35.0112L7.32265 33.867L6.63615 32.7228L6.17848 31.3498V27.2308L7.09381 25.1714L8.69564 22.883L10.2975 21.2812L13.0435 19.6794L16.9336 18.3064L21.5103 17.6199Z" fill="#3D2F29"/>
<path d="M181.005 5.7207L183.522 5.94954L185.811 6.86487L187.184 7.7802L188.786 9.83969L189.472 11.4415L189.701 12.3568V15.5605L189.243 18.0777L187.87 20.366L185.811 22.6543L183.065 24.2561L181.234 24.9426L178.259 25.4003H173.683L172.996 25.1715L169.564 24.7138L164.529 23.5696V78.2607L172.081 78.4895L172.31 78.7183V79.8625L172.081 80.0913L155.834 80.3201L156.062 84.8968L155.605 85.3545H131.349L131.577 102.746L131.349 103.432L132.493 102.746L133.637 101.373L135.925 99.7709L137.985 98.6268L140.731 97.7114L143.705 97.4826H146.451L149.197 97.9403L151.486 98.6268L155.147 100.686L156.749 102.288L158.58 104.805L159.724 107.551L160.41 110.297L160.639 113.272V116.476L159.953 120.824L158.351 125.171L156.52 127.689L155.376 129.062H154.918L154.461 129.977L152.172 131.579L149.197 132.952L146.451 133.638L144.163 133.867H139.815L135.468 132.952L132.264 131.35L130.662 129.977L129.747 128.833L129.06 127.46L128.603 125.629V122.654L129.06 120.595L130.204 119.451L131.806 118.306L133.637 117.849L135.696 118.078L137.069 118.535L138.671 120.366L139.129 121.281V124.027L137.985 126.087L136.154 127.002H133.866L132.264 126.087L131.577 124.714V124.256H130.662V125.858L131.806 128.146L133.408 129.748L135.239 130.663L136.841 131.35L138.442 131.579H143.248L145.765 130.663L147.824 129.29L149.655 126.773L150.799 124.256L151.715 120.366L151.943 117.62V112.586L151.486 108.238L150.57 105.034L149.197 102.517L147.824 100.915L146.68 100.229L144.392 99.5421H142.104L139.129 100.229L136.612 101.602L133.637 104.119L131.349 107.322H130.204L129.747 106.865V78.9472L129.976 78.4895L151.715 78.2607L153.545 77.5742L154.461 75.7435V20.8237L153.774 20.1372L150.113 18.993L149.426 18.5353L147.824 18.0777L146.451 17.62L142.79 16.4758L141.188 16.247H137.069L135.468 16.7047L133.866 17.3912L132.264 19.2218L132.035 21.0525L133.179 21.2813L133.637 19.9083L135.239 18.3065L137.527 17.8488L138.9 18.0777L140.502 18.7642L142.104 20.366L142.79 22.6543L142.561 25.1715L141.646 27.231L139.587 28.8328L138.214 29.5193H135.01L133.408 29.0616L131.349 27.4598L129.976 25.4003L129.518 23.5696V21.0525L129.976 19.2218L131.12 16.9335L133.408 15.1028L135.468 14.4163L136.612 13.9587H141.188L145.078 14.874L148.74 16.0182L151.486 16.9335L154.232 18.0777L158.122 19.2218L164.072 21.0525L168.877 22.1967L171.165 22.6543L175.971 23.3408L178.488 23.112L181.692 22.4255L184.438 20.8237L185.582 19.6795L186.955 17.62L187.641 15.7893V12.5857L186.268 9.83969L185.124 8.92436L183.751 8.23786H182.378L182.607 9.38203L183.98 10.0685L185.353 11.6704L185.811 12.8145L185.582 15.7893L184.667 17.1623L182.836 18.5353L181.921 18.993H178.717L176.886 18.0777L175.742 16.9335L174.827 15.7893L174.14 13.501V11.6704L174.827 9.38203L177.344 6.86487L178.946 6.17837L181.005 5.7207Z" fill="#3D2F29"/>
<path d="M108.694 17.6199H113.499L117.618 18.3064L120.593 19.4505L123.797 21.2812L124.941 22.4254L126.772 24.7137L127.458 26.7732L127.687 28.1462V31.3498L126.543 33.867L125.628 35.0112L124.483 35.9265L122.882 36.613L119.678 36.8418L118.305 36.3841L116.245 35.0112L115.101 33.6382L114.644 32.2652V29.0615L115.33 27.4597L117.161 25.629L118.763 25.1714H120.593L122.424 25.8578L123.797 27.2308L124.255 28.375L125.17 28.6038L125.399 27.9173L124.941 26.3155L123.797 24.4849L122.882 23.3407L120.136 21.51L117.618 20.5947L116.017 20.137L111.211 19.9082L108.236 20.3659L105.49 21.2812L102.744 23.1119L100.685 25.4002L99.7695 27.6885L99.5407 29.0615V31.5787L99.7695 33.6382L100.914 36.1553L102.287 37.986L103.888 39.359L107.321 41.6473L111.211 43.478L113.728 44.6221L118.076 46.4528L121.966 48.5123L124.483 50.3429L126.314 51.9448L126.772 52.8601L127.458 53.0889L129.06 55.6061L129.975 57.8944L130.433 59.2674L130.662 61.3269V65.6747L130.204 67.9631L129.518 70.2514L128.145 72.9974L126.314 75.2857L124.483 77.1164L120.822 79.4047L117.618 80.7777L113.728 81.693L111.211 81.9218V116.933L111.44 117.162L117.847 117.391L118.076 117.62V118.764L117.847 118.993H97.2523L96.7947 118.764V117.62L97.2523 117.391H103.202V89.4733L101.829 89.931L99.5407 91.0751L97.71 91.7617H96.1082L95.8793 90.6175L97.2523 89.7022L98.8542 89.2445L101.6 87.8715L103.431 86.4985L104.804 84.6678L105.719 82.6083V81.9218L102.744 81.4642L99.9983 80.7777L97.71 79.6335L95.6505 78.4894L93.1333 76.4299L91.7603 74.828L90.1585 71.3955L89.9297 70.4802V66.5901L90.845 64.0729L92.4468 62.2422L95.1928 60.8692H98.6253L100.914 62.0134V62.4711L101.829 62.9287L102.744 64.5306L103.202 65.6747V68.1919L102.287 70.2514L101.371 71.3955L100.227 72.082L98.6253 72.5397L96.7947 72.3109L95.4217 71.8532L93.8198 70.4802L92.9045 69.1072L92.218 69.3361L92.4468 70.9379L93.3622 73.2262L94.5063 74.5992V75.0569L95.4217 75.5145V75.9722L96.5658 76.4299L98.6253 77.8029L101.6 78.947L104.804 79.6335H110.982L114.186 78.947L116.474 78.0317L118.763 76.6587L120.822 74.828L122.195 72.5397L122.882 70.9379L123.11 68.8784V65.6747L122.653 63.6152L121.509 61.3269L119.449 59.0386L116.932 57.2079L115.101 56.0638L112.813 55.1484L110.067 53.7754L104.804 51.4871L100.456 49.1988L97.71 47.1393L95.8793 45.5375L93.591 42.3338L92.218 38.6725L91.9892 36.613V32.7228L92.4468 29.9768L93.8198 26.3155L95.8793 23.5695L96.7947 22.6542H97.2523V22.1965L99.5407 20.5947L102.287 19.2217L104.804 18.3064L108.236 17.8487L108.694 17.6199Z" fill="#3D2F29"/>
<path d="M270.71 17.6199H275.973L280.55 18.5352L282.838 19.2217L287.415 21.7389L289.703 23.5695L290.389 24.0272V24.4849H290.847L292.449 26.3155L294.737 29.5192L296.11 31.8075L297.483 35.0112L298.398 37.986L299.085 40.732L299.771 45.0798L300 50.5718L299.543 56.2926L298.856 59.9539L298.398 61.3269L298.17 62.9287L297.254 64.9882L295.881 68.1919L294.737 70.0225L293.822 71.6244L291.762 74.1415L289.474 76.4299L286.27 78.7182L283.067 80.32L281.007 81.0065L278.261 81.693L275.973 81.9218H270.481L266.82 81.2353L264.76 80.7777L260.183 78.4893L256.98 75.9722L254.92 74.1415L253.318 71.8532L251.717 69.336L249.886 65.6747L248.513 61.7846L247.598 58.1232L246.911 51.0294L247.14 45.7663L247.598 41.4185L248.971 36.1553L249.886 34.0958L251.945 29.748L253.776 27.2308L255.149 25.4002L256.98 23.7984L259.039 21.9677L261.099 20.5947L264.76 18.9929L266.82 18.3064L270.71 17.6199ZM272.54 19.6794L270.023 19.9082L267.506 20.8235L265.447 22.1965L264.302 23.1119L262.929 24.7137L261.785 26.7732L260.641 29.2903L259.497 34.0958L258.582 41.4185V58.5809L259.268 65.2171L260.641 70.4802L261.785 73.2262L263.616 75.9722L265.675 77.8029L266.591 78.0317V78.4893L268.65 79.4047L270.481 79.8623H276.202L278.719 79.1758L281.007 77.8029L283.067 75.9722L285.126 72.7685L286.499 69.336L287.186 66.5901L287.872 62.4711L288.33 55.1484V43.9356L287.872 37.0706L286.957 31.8075L286.27 29.5192L285.355 27.2308L283.524 24.256L281.007 21.7389L278.948 20.5947L276.888 19.9082L272.54 19.6794Z" fill="#3D2F29"/>
<path d="M71.8537 5.26318L75.2862 5.72085L78.4899 7.55151L79.8629 9.38217L81.007 11.6705L81.2359 12.5858V17.1625L80.3205 19.6796L79.1764 21.5103L76.6592 24.0275V78.032L76.888 78.2608L83.753 78.4896L83.9818 78.7185V80.0915H59.9544L59.7256 79.8626V78.7185L59.9544 78.4896H66.3617L66.1329 26.5446L60.1833 26.3158L59.7256 25.1716L59.9544 24.2563H66.5906L70.7096 23.7986L73.4555 22.8833L75.7439 21.7391L77.1169 20.595L78.0322 19.4508L78.7187 18.0778L79.1764 16.2472V13.73L78.4899 11.2128L77.1169 9.38217L75.7439 8.23801L74.142 7.55151H70.4807L68.4212 8.46684L67.2771 9.611L66.1329 11.4417V12.8147L67.0482 13.0435L67.5059 11.8993L68.6501 10.2975L69.7942 9.611L72.769 9.38217L74.3709 10.0687L75.9727 11.2128L76.888 13.5012V16.2472L76.2015 18.0778L75.2862 19.222L72.9979 20.595L71.1672 21.0526L69.1077 20.8238L67.5059 20.3661V19.9085L66.1329 19.4508L64.7599 17.6201L64.0734 16.2472L63.6157 14.4165V12.5858L64.3022 9.83984L65.2176 8.46684H65.6752L66.1329 7.55151L68.4212 5.94968L70.0231 5.49202L71.8537 5.26318Z" fill="#3D2F29"/>
<path d="M17.3922 48.0549H20.3671L25.4014 48.5126L29.5204 49.4279L31.1222 50.1144L32.4952 50.8009L34.7835 52.6316L36.3853 55.1487L37.0718 56.7506L37.7583 60.4119V65.2174L37.0718 69.1075L36.1565 71.3959L34.5547 73.6842L32.724 75.5148L30.6645 76.659L27.6897 77.8032L22.6554 78.4897H17.1634L16.9346 78.2608V48.5126L17.3922 48.0549Z" fill="#F6E7D7"/>
<path d="M272.309 0H274.826L276.886 1.14416L279.174 3.66132L282.378 7.32265L284.209 8.92447L287.183 11.2128L289.701 12.8146L290.845 13.2723L291.074 14.1876L290.616 15.103L289.472 14.8741L286.726 13.5011L284.437 12.5858L280.09 10.5263L277.344 9.15331L275.742 8.46681L274.369 7.78031H272.996L270.707 8.92447L267.046 10.5263L261.554 13.2723L259.266 14.1876L257.435 15.103L256.52 14.8741L256.291 13.2723L258.122 12.357L260.639 10.7551L263.842 8.23798L267.275 4.80549L269.334 2.28833L271.165 0.686498L272.309 0Z" fill="#3D2F29"/>
</svg>
