<svg width="3881" height="4269" viewBox="0 0 3881 4269" fill="none" xmlns="http://www.w3.org/2000/svg">
<rect width="3881" height="4269" rx="1000" fill="#3D2F29"/>
<path d="M1649.64 2111.74L1770.41 2073.55L1901.24 2064H2022.01L2142.79 2083.09L2193.11 2097.41L2243.43 2111.74L2404.46 2197.66L2474.91 2264.49L2555.42 2369.51L2605.74 2484.08L2635.94 2598.64L2646 2722.75V2856.42L2615.81 3037.81L2545.36 3219.21L2464.84 3324.23L2414.52 3381.51H2394.39L2374.26 3419.7L2273.62 3486.53L2142.79 3543.81L2022.01 3572.45L1921.37 3582H1730.15L1538.93 3543.81L1398.03 3476.98L1327.58 3419.7L1287.32 3371.96L1257.13 3314.68L1237 3238.3V3114.19L1257.13 3028.26L1307.45 2980.53L1377.9 2932.79L1458.41 2913.7L1548.99 2923.24L1609.38 2942.34L1679.83 3018.72L1699.96 3056.91V3171.47L1649.64 3257.4L1569.12 3295.58H1468.48L1398.03 3257.4L1367.84 3200.11V3181.02H1327.58V3247.85L1377.9 3343.32L1448.35 3410.15L1528.86 3448.34L1599.31 3476.98L1669.76 3486.53H1881.11L1991.82 3448.34L2082.4 3391.06L2162.91 3286.04L2213.24 3181.02L2253.49 3018.72L2263.56 2904.15V2694.11L2243.43 2512.72L2203.17 2379.06L2142.79 2274.04L2082.4 2207.21L2032.08 2178.57L1931.44 2149.92H1830.79L1699.96 2178.57L1649.64 2111.74Z" fill="#F7E6D6"/>
<path d="M1649.64 2111.74L1770.41 2073.55L1901.24 2064H2022.01L2142.79 2083.09L2193.11 2097.41L2243.43 2111.74L2404.46 2197.66L2474.91 2264.49L2555.42 2369.51L2605.74 2484.08L2635.94 2598.64L2646 2722.75V2856.42L2615.81 3037.81L2545.36 3219.21L2464.84 3324.23L2414.52 3381.51H2394.39L2374.26 3419.7L2273.62 3486.53L2142.79 3543.81L2022.01 3572.45L1921.37 3582H1730.15L1538.93 3543.81L1398.03 3476.98L1327.58 3419.7L1287.32 3371.96L1257.13 3314.68L1237 3238.3V3114.19L1257.13 3028.26L1307.45 2980.53L1377.9 2932.79L1458.41 2913.7L1548.99 2923.24L1609.38 2942.34L1679.83 3018.72L1699.96 3056.91V3171.47L1649.64 3257.4L1569.12 3295.58H1468.48L1398.03 3257.4L1367.84 3200.11V3181.02H1327.58V3247.85L1377.9 3343.32L1448.35 3410.15L1528.86 3448.34L1599.31 3476.98L1669.76 3486.53H1881.11L1991.82 3448.34L2082.4 3391.06L2162.91 3286.04L2213.24 3181.02L2253.49 3018.72L2263.56 2904.15V2694.11L2243.43 2512.72L2203.17 2379.06L2142.79 2274.04L2082.4 2207.21L2032.08 2178.57L1931.44 2149.92H1830.79L1699.96 2178.57L1649.64 2111.74Z" fill="#F7E6D6"/>
<path d="M2403.46 2029.3L2473.91 1964.45L2554.42 1862.55L2604.74 1751.38L2634.94 1640.21L2645 1519.77V1390.07L2614.81 1214.06L2544.36 1038.04L2463.84 936.131L2413.52 880.546H2393.39L2373.26 843.49L2272.62 778.64L2141.79 723.056L2021.01 695.263L1920.37 685.999H1729.15L1537.93 723.056L1397.03 787.904L1326.58 843.49L1286.32 889.81L1256.13 945.395L1236 1019.51L1326.58 1010.24L1376.9 917.603L1447.35 852.754L1527.86 815.697L1598.31 787.904L1668.76 778.64H1880.11L1990.82 815.697L2081.4 871.282L2161.91 973.188L2212.24 1075.09L2252.49 1232.58L2262.56 1343.75V1547.56L2242.43 1723.58L2202.17 1853.28L2141.79 1955.19L2081.4 2020.04L2403.46 2029.3Z" fill="#F7E6D6"/>
<path d="M2403.46 2029.3L2473.91 1964.45L2554.42 1862.55L2604.74 1751.38L2634.94 1640.21L2645 1519.77V1390.07L2614.81 1214.06L2544.36 1038.04L2463.84 936.131L2413.52 880.546H2393.39L2373.26 843.49L2272.62 778.64L2141.79 723.056L2021.01 695.263L1920.37 685.999H1729.15L1537.93 723.056L1397.03 787.904L1326.58 843.49L1286.32 889.81L1256.13 945.395L1236 1019.51L1326.58 1010.24L1376.9 917.603L1447.35 852.754L1527.86 815.697L1598.31 787.904L1668.76 778.64H1880.11L1990.82 815.697L2081.4 871.282L2161.91 973.188L2212.24 1075.09L2252.49 1232.58L2262.56 1343.75V1547.56L2242.43 1723.58L2202.17 1853.28L2141.79 1955.19L2081.4 2020.04L2403.46 2029.3Z" fill="#F7E6D6"/>
<path d="M1578.6 2138V2812H1429L1424.6 2281.5L1398.2 2290.19L1354.2 2311.94L1341 2277.15L1393.8 2251.06L1429 2224.97L1455.4 2190.18L1473 2151.05V2138H1578.6Z" fill="#F7E6D6"/>
<path d="M1560.11 1176.78L1565.51 2090.5H1460.01L1460 1133.77L1472.51 1118.59H2126V1176.78H1560.11Z" fill="#F7E6D6"/>
</svg>
